<svg width="65" height="33" viewBox="0 0 101 53" fill="none"
    xmlns="http://www.w3.org/2000/svg">
    <path d="M16.5 50L3 26.5L16.5 3H83L97.5 26.5L83 50H16.5Z" stroke="#866CC7" stroke-width="5"/>
    <path d="M29.92 19.2V34H27.62V22.82L24.82 22.84V21.46L25.3 21.32C26.0467 21.0933 26.6467 20.84 27.1 20.56C27.5667 20.28 28.0067 19.8933 28.42 19.4L28.6 19.2H29.92ZM38.1372 34V18.8H40.4172V27.62L44.3972 23.4H47.1972L42.5772 28.24L47.3372 34H44.5172L40.4172 29V34H38.1372ZM49.9034 37.9C49.5701 37.9 49.2968 37.8867 49.0834 37.86C48.8701 37.8333 48.7634 37.82 48.7634 37.82V35.92C48.7634 35.92 48.8701 35.9267 49.0834 35.94C49.2968 35.9667 49.5301 35.98 49.7834 35.98C50.5168 35.98 51.1168 35.84 51.5834 35.56C52.0634 35.2933 52.4701 34.82 52.8034 34.14L48.7634 23.4H51.0834L53.9434 31.34L56.8034 23.4H59.1634L55.1634 33.88C54.6301 35.2533 53.9501 36.2667 53.1234 36.92C52.2968 37.5733 51.2234 37.9 49.9034 37.9ZM64.5013 34.2C63.4346 34.2 62.6013 33.8667 62.0013 33.2C61.4013 32.5333 61.1012 31.6467 61.1012 30.54V23.4H63.3813V30.26C63.3813 30.9 63.5479 31.4 63.8813 31.76C64.2279 32.1067 64.6946 32.28 65.2813 32.28C65.8546 32.28 66.3146 32.1333 66.6613 31.84C67.0079 31.5467 67.2546 31.1733 67.4013 30.72C67.5613 30.2533 67.6413 29.7733 67.6413 29.28V23.4H69.9213V34H67.6413V32.48H67.5213C67.4146 32.68 67.2413 32.92 67.0013 33.2C66.7746 33.4667 66.4546 33.7 66.0413 33.9C65.6413 34.1 65.1279 34.2 64.5013 34.2Z" fill="#866CC7"/>
</svg>
