<svg width="65" height="53" viewBox="0 0 101 53" fill="none"
    xmlns="http://www.w3.org/2000/svg">
    <path d="M16.5 50L3 26.5L16.5 3H83L97.5 26.5L83 50H16.5Z" stroke="#866CC7" stroke-width="5"/>
    <path d="M25.46 34V32.38L28.48 29.64C29.44 28.7867 30.2733 28.0467 30.98 27.42C31.6867 26.78 32.2333 26.1733 32.62 25.6C33.02 25.0133 33.22 24.3733 33.22 23.68C33.22 23.1333 33.0867 22.6667 32.82 22.28C32.5533 21.8933 32.2133 21.6 31.8 21.4C31.3867 21.1867 30.9533 21.08 30.5 21.08C29.9533 21.08 29.5 21.1733 29.14 21.36C28.7933 21.5333 28.5133 21.76 28.3 22.04C28.1 22.3067 27.9533 22.5867 27.86 22.88C27.7667 23.16 27.7067 23.4133 27.68 23.64C27.6533 23.8533 27.64 23.9867 27.64 24.04H25.4C25.4 23.8933 25.4267 23.6267 25.48 23.24C25.5467 22.8533 25.6733 22.4267 25.86 21.96C26.06 21.48 26.3467 21.0133 26.72 20.56C27.1067 20.1067 27.6067 19.7333 28.22 19.44C28.8467 19.1467 29.6267 19 30.56 19C31.4533 19 32.28 19.18 33.04 19.54C33.8 19.9 34.4067 20.4267 34.86 21.12C35.3267 21.8 35.56 22.6267 35.56 23.6C35.56 24.4933 35.3333 25.3067 34.88 26.04C34.44 26.76 33.84 27.4733 33.08 28.18C32.3333 28.8733 31.5 29.62 30.58 30.42L28.92 31.92H35.84V34H25.46ZM43.2348 34V18.8H45.5148V27.62L49.4948 23.4H52.2948L47.6748 28.24L52.4348 34H49.6148L45.5148 29V34H43.2348ZM55.0011 37.9C54.6678 37.9 54.3944 37.8867 54.1811 37.86C53.9678 37.8333 53.8611 37.82 53.8611 37.82V35.92C53.8611 35.92 53.9678 35.9267 54.1811 35.94C54.3944 35.9667 54.6278 35.98 54.8811 35.98C55.6144 35.98 56.2144 35.84 56.6811 35.56C57.1611 35.2933 57.5678 34.82 57.9011 34.14L53.8611 23.4H56.1811L59.0411 31.34L61.9011 23.4H64.2611L60.2611 33.88C59.7278 35.2533 59.0478 36.2667 58.2211 36.92C57.3944 37.5733 56.3211 37.9 55.0011 37.9ZM69.5989 34.2C68.5322 34.2 67.6989 33.8667 67.0989 33.2C66.4989 32.5333 66.1989 31.6467 66.1989 30.54V23.4H68.4789V30.26C68.4789 30.9 68.6456 31.4 68.9789 31.76C69.3256 32.1067 69.7922 32.28 70.3789 32.28C70.9522 32.28 71.4122 32.1333 71.7589 31.84C72.1056 31.5467 72.3522 31.1733 72.4989 30.72C72.6589 30.2533 72.7389 29.7733 72.7389 29.28V23.4H75.0189V34H72.7389V32.48H72.6189C72.5122 32.68 72.3389 32.92 72.0989 33.2C71.8722 33.4667 71.5522 33.7 71.1389 33.9C70.7389 34.1 70.2256 34.2 69.5989 34.2Z" fill="#866CC7"/>
</svg>
