<svg width="65" height="53" viewBox="0 0 101 53" fill="none"
    xmlns="http://www.w3.org/2000/svg">
    <path d="M16.5 50L3 26.5L16.5 3H83L97.5 26.5L83 50H16.5Z" stroke="#1F87E7" stroke-width="5"/>
    <path d="M30.6 34.2C29.4933 34.2 28.5467 33.9867 27.76 33.56C26.9733 33.1333 26.3733 32.5667 25.96 31.86C25.5467 31.1533 25.34 30.3733 25.34 29.52H27.54C27.54 30.3467 27.8267 31.0067 28.4 31.5C28.9733 31.9933 29.7067 32.24 30.6 32.24C31.1333 32.24 31.62 32.14 32.06 31.94C32.5133 31.74 32.8733 31.4467 33.14 31.06C33.4067 30.6733 33.54 30.2067 33.54 29.66C33.54 28.9533 33.3 28.3867 32.82 27.96C32.34 27.5333 31.6867 27.32 30.86 27.32H28.86V25.5H30.86C31.5533 25.5 32.1333 25.3 32.6 24.9C33.08 24.4867 33.32 23.9533 33.32 23.3C33.32 22.82 33.1933 22.4067 32.94 22.06C32.7 21.7 32.3733 21.4267 31.96 21.24C31.5467 21.04 31.0933 20.94 30.6 20.94C29.8 20.94 29.1267 21.2 28.58 21.72C28.0467 22.2267 27.78 22.8867 27.78 23.7H25.62C25.62 22.86 25.82 22.0867 26.22 21.38C26.62 20.66 27.1933 20.0867 27.94 19.66C28.7 19.22 29.6 19 30.64 19C31.48 19 32.2733 19.1667 33.02 19.5C33.78 19.82 34.3933 20.2867 34.86 20.9C35.34 21.5133 35.58 22.2467 35.58 23.1C35.58 23.9267 35.36 24.6133 34.92 25.16C34.4933 25.7067 33.9867 26.0933 33.4 26.32V26.42C34.0933 26.66 34.6733 27.06 35.14 27.62C35.62 28.18 35.86 28.8933 35.86 29.76C35.86 30.6933 35.6133 31.4933 35.12 32.16C34.64 32.8133 34 33.32 33.2 33.68C32.4 34.0267 31.5333 34.2 30.6 34.2ZM43.4692 34V18.8H45.7492V27.62L49.7292 23.4H52.5292L47.9092 28.24L52.6692 34H49.8492L45.7492 29V34H43.4692ZM55.2355 37.9C54.9021 37.9 54.6288 37.8867 54.4155 37.86C54.2021 37.8333 54.0955 37.82 54.0955 37.82V35.92C54.0955 35.92 54.2021 35.9267 54.4155 35.94C54.6288 35.9667 54.8621 35.98 55.1155 35.98C55.8488 35.98 56.4488 35.84 56.9155 35.56C57.3955 35.2933 57.8021 34.82 58.1355 34.14L54.0955 23.4H56.4155L59.2755 31.34L62.1355 23.4H64.4955L60.4955 33.88C59.9621 35.2533 59.2821 36.2667 58.4555 36.92C57.6288 37.5733 56.5555 37.9 55.2355 37.9ZM69.8333 34.2C68.7666 34.2 67.9333 33.8667 67.3333 33.2C66.7333 32.5333 66.4333 31.6467 66.4333 30.54V23.4H68.7133V30.26C68.7133 30.9 68.8799 31.4 69.2133 31.76C69.5599 32.1067 70.0266 32.28 70.6133 32.28C71.1866 32.28 71.6466 32.1333 71.9933 31.84C72.3399 31.5467 72.5866 31.1733 72.7333 30.72C72.8933 30.2533 72.9733 29.7733 72.9733 29.28V23.4H75.2533V34H72.9733V32.48H72.8533C72.7466 32.68 72.5733 32.92 72.3333 33.2C72.1066 33.4667 71.7866 33.7 71.3733 33.9C70.9733 34.1 70.4599 34.2 69.8333 34.2Z" fill="#1F87E7"/>
</svg>
