<svg width="65" height="53" viewBox="0 0 101 53" fill="none"
    xmlns="http://www.w3.org/2000/svg">
    <path d="M16.5 50L3 26.5L16.5 3H83L97.5 26.5L83 50H16.5Z" stroke="#1F87E7" stroke-width="5"/>
    <path d="M32.22 34V30.7L25.02 30.68V28.6L31.7 19.2H34.56V28.7H37.04V30.7H34.56V34H32.22ZM27.38 28.7H32.22V21.84L27.38 28.7ZM44.3872 34V18.8H46.6672V27.62L50.6472 23.4H53.4472L48.8272 28.24L53.5872 34H50.7672L46.6672 29V34H44.3872ZM56.1534 37.9C55.8201 37.9 55.5468 37.8867 55.3334 37.86C55.1201 37.8333 55.0134 37.82 55.0134 37.82V35.92C55.0134 35.92 55.1201 35.9267 55.3334 35.94C55.5468 35.9667 55.7801 35.98 56.0334 35.98C56.7668 35.98 57.3668 35.84 57.8334 35.56C58.3134 35.2933 58.7201 34.82 59.0534 34.14L55.0134 23.4H57.3334L60.1934 31.34L63.0534 23.4H65.4134L61.4134 33.88C60.8801 35.2533 60.2001 36.2667 59.3734 36.92C58.5468 37.5733 57.4734 37.9 56.1534 37.9ZM70.7513 34.2C69.6846 34.2 68.8513 33.8667 68.2513 33.2C67.6513 32.5333 67.3512 31.6467 67.3512 30.54V23.4H69.6313V30.26C69.6313 30.9 69.7979 31.4 70.1313 31.76C70.4779 32.1067 70.9446 32.28 71.5313 32.28C72.1046 32.28 72.5646 32.1333 72.9113 31.84C73.2579 31.5467 73.5046 31.1733 73.6513 30.72C73.8113 30.2533 73.8913 29.7733 73.8913 29.28V23.4H76.1713V34H73.8913V32.48H73.7713C73.6646 32.68 73.4913 32.92 73.2513 33.2C73.0246 33.4667 72.7046 33.7 72.2913 33.9C71.8913 34.1 71.3779 34.2 70.7513 34.2Z" fill="#1F87E7"/>
</svg>
