<svg width="65" height="53" viewBox="0 0 101 53" fill="none"
    xmlns="http://www.w3.org/2000/svg">
    <path d="M16.5 50L3 26.5L16.5 3H83L97.5 26.5L83 50H16.5Z" stroke="#ECB613" stroke-width="5"/>
    <path d="M30.6 34.2C29.6533 34.2 28.86 34.0667 28.22 33.8C27.5933 33.52 27.08 33.1733 26.68 32.76C26.2933 32.3333 25.9933 31.9 25.78 31.46C25.58 31.02 25.44 30.6267 25.36 30.28C25.2933 29.9333 25.26 29.7 25.26 29.58H27.44C27.44 29.58 27.4533 29.6733 27.48 29.86C27.52 30.0333 27.5867 30.2533 27.68 30.52C27.7867 30.7867 27.9533 31.0533 28.18 31.32C28.4067 31.5733 28.7133 31.7933 29.1 31.98C29.4867 32.1533 29.98 32.24 30.58 32.24C31.3 32.24 31.8933 32.0867 32.36 31.78C32.84 31.4733 33.1933 31.08 33.42 30.6C33.66 30.12 33.78 29.6133 33.78 29.08C33.78 28.5467 33.66 28.0333 33.42 27.54C33.1933 27.0333 32.8467 26.6267 32.38 26.32C31.9133 26 31.34 25.84 30.66 25.84C30.1267 25.84 29.68 25.9267 29.32 26.1C28.9733 26.2733 28.6933 26.4733 28.48 26.7C28.28 26.9133 28.1333 27.1067 28.04 27.28C27.96 27.4533 27.92 27.54 27.92 27.54H25.62L26.84 19.2H35.04V21.26H28.5L27.94 25.2H28C28.12 25.0667 28.3 24.9067 28.54 24.72C28.78 24.52 29.1 24.3467 29.5 24.2C29.9133 24.04 30.44 23.96 31.08 23.96C32.16 23.96 33.0667 24.2067 33.8 24.7C34.5467 25.18 35.1067 25.8133 35.48 26.6C35.8667 27.3733 36.06 28.1867 36.06 29.04C36.06 29.68 35.9467 30.3067 35.72 30.92C35.4933 31.5333 35.1533 32.0867 34.7 32.58C34.26 33.0733 33.6933 33.4667 33 33.76C32.32 34.0533 31.52 34.2 30.6 34.2ZM43.4692 34V18.8H45.7492V27.62L49.7292 23.4H52.5292L47.9092 28.24L52.6692 34H49.8492L45.7492 29V34H43.4692ZM55.2355 37.9C54.9021 37.9 54.6288 37.8867 54.4155 37.86C54.2021 37.8333 54.0955 37.82 54.0955 37.82V35.92C54.0955 35.92 54.2021 35.9267 54.4155 35.94C54.6288 35.9667 54.8621 35.98 55.1155 35.98C55.8488 35.98 56.4488 35.84 56.9155 35.56C57.3955 35.2933 57.8021 34.82 58.1355 34.14L54.0955 23.4H56.4155L59.2755 31.34L62.1355 23.4H64.4955L60.4955 33.88C59.9621 35.2533 59.2821 36.2667 58.4555 36.92C57.6288 37.5733 56.5555 37.9 55.2355 37.9ZM69.8333 34.2C68.7666 34.2 67.9333 33.8667 67.3333 33.2C66.7333 32.5333 66.4333 31.6467 66.4333 30.54V23.4H68.7133V30.26C68.7133 30.9 68.8799 31.4 69.2133 31.76C69.5599 32.1067 70.0266 32.28 70.6133 32.28C71.1866 32.28 71.6466 32.1333 71.9933 31.84C72.3399 31.5467 72.5866 31.1733 72.7333 30.72C72.8933 30.2533 72.9733 29.7733 72.9733 29.28V23.4H75.2533V34H72.9733V32.48H72.8533C72.7466 32.68 72.5733 32.92 72.3333 33.2C72.1066 33.4667 71.7866 33.7 71.3733 33.9C70.9733 34.1 70.4599 34.2 69.8333 34.2Z" fill="#ECB613"/>
</svg>
