<svg width="65" height="53" viewBox="0 0 101 53" fill="none"
    xmlns="http://www.w3.org/2000/svg">
    <path d="M16.5 50L3 26.5L16.5 3H83L97.5 26.5L83 50H16.5Z" stroke="#ECB613" stroke-width="5"/>
    <path d="M31.1 34.2C30.1267 34.2 29.28 34.02 28.56 33.66C27.84 33.3 27.2467 32.8067 26.78 32.18C26.3133 31.54 25.9667 30.8133 25.74 30C25.5133 29.1867 25.4 28.3333 25.4 27.44C25.4 26.6933 25.48 25.9267 25.64 25.14C25.8133 24.3533 26.08 23.5933 26.44 22.86C26.8133 22.1267 27.2933 21.4733 27.88 20.9C28.4667 20.3133 29.1733 19.8533 30 19.52C30.8267 19.1733 31.7933 19 32.9 19C33.5133 19 34.0467 19.0467 34.5 19.14C34.9533 19.2333 35.18 19.28 35.18 19.28V21.38C35.18 21.38 35.06 21.36 34.82 21.32C34.5933 21.28 34.3 21.24 33.94 21.2C33.5933 21.1467 33.24 21.12 32.88 21.12C31.9467 21.12 31.16 21.2867 30.52 21.62C29.88 21.9533 29.3667 22.38 28.98 22.9C28.5933 23.4067 28.3067 23.94 28.12 24.5C27.9467 25.06 27.8467 25.5733 27.82 26.04C27.9267 25.8533 28.12 25.62 28.4 25.34C28.68 25.06 29.0667 24.8133 29.56 24.6C30.0533 24.3733 30.6867 24.26 31.46 24.26C32.54 24.26 33.44 24.5 34.16 24.98C34.88 25.4467 35.42 26.0533 35.78 26.8C36.1533 27.5333 36.34 28.3067 36.34 29.12C36.34 29.76 36.2267 30.38 36 30.98C35.7867 31.58 35.46 32.1267 35.02 32.62C34.5933 33.1 34.0533 33.4867 33.4 33.78C32.7467 34.06 31.98 34.2 31.1 34.2ZM31.08 32.24C31.6 32.24 32.0867 32.1267 32.54 31.9C32.9933 31.66 33.36 31.3133 33.64 30.86C33.92 30.4067 34.06 29.8533 34.06 29.2C34.06 28.5467 33.92 27.9933 33.64 27.54C33.36 27.0867 32.9933 26.7467 32.54 26.52C32.0867 26.28 31.6 26.16 31.08 26.16C30.56 26.16 30.0733 26.28 29.62 26.52C29.1667 26.7467 28.8 27.0867 28.52 27.54C28.24 27.9933 28.1 28.5467 28.1 29.2C28.1 29.8533 28.24 30.4067 28.52 30.86C28.8 31.3133 29.1667 31.66 29.62 31.9C30.0733 32.1267 30.56 32.24 31.08 32.24ZM43.8598 34V18.8H46.1398V27.62L50.1198 23.4H52.9198L48.2998 28.24L53.0598 34H50.2398L46.1398 29V34H43.8598ZM55.6261 37.9C55.2928 37.9 55.0194 37.8867 54.8061 37.86C54.5928 37.8333 54.4861 37.82 54.4861 37.82V35.92C54.4861 35.92 54.5928 35.9267 54.8061 35.94C55.0194 35.9667 55.2528 35.98 55.5061 35.98C56.2394 35.98 56.8394 35.84 57.3061 35.56C57.7861 35.2933 58.1928 34.82 58.5261 34.14L54.4861 23.4H56.8061L59.6661 31.34L62.5261 23.4H64.8861L60.8861 33.88C60.3528 35.2533 59.6728 36.2667 58.8461 36.92C58.0194 37.5733 56.9461 37.9 55.6261 37.9ZM70.2239 34.2C69.1572 34.2 68.3239 33.8667 67.7239 33.2C67.1239 32.5333 66.8239 31.6467 66.8239 30.54V23.4H69.1039V30.26C69.1039 30.9 69.2706 31.4 69.6039 31.76C69.9506 32.1067 70.4172 32.28 71.0039 32.28C71.5772 32.28 72.0372 32.1333 72.3839 31.84C72.7306 31.5467 72.9772 31.1733 73.1239 30.72C73.2839 30.2533 73.3639 29.7733 73.3639 29.28V23.4H75.6439V34H73.3639V32.48H73.2439C73.1372 32.68 72.9639 32.92 72.7239 33.2C72.4972 33.4667 72.1772 33.7 71.7639 33.9C71.3639 34.1 70.8506 34.2 70.2239 34.2Z" fill="#ECB613"/>
</svg>
