<svg width="65" height="53" viewBox="0 0 101 53" fill="none"
    xmlns="http://www.w3.org/2000/svg">
    <path d="M16.5 50L3 26.5L16.5 3H83L97.5 26.5L83 50H16.5Z" stroke="#404040" stroke-width="5"/>
    <path d="M27.44 34C27.4933 32.7467 27.66 31.5533 27.94 30.42C28.22 29.2867 28.5667 28.24 28.98 27.28C29.4067 26.3067 29.8533 25.4267 30.32 24.64C30.7867 23.8533 31.2333 23.1733 31.66 22.6C32.0867 22.0267 32.4333 21.58 32.7 21.26H24.98V19.2H35.34V20.9C35.34 20.9 35.2133 21.0467 34.96 21.34C34.7067 21.62 34.3733 22.0333 33.96 22.58C33.56 23.1267 33.1267 23.7867 32.66 24.56C32.1933 25.3333 31.7467 26.2067 31.32 27.18C30.9067 28.1533 30.5533 29.2133 30.26 30.36C29.9667 31.4933 29.8 32.7067 29.76 34H27.44ZM42.0239 34V18.8H44.3039V27.62L48.2839 23.4H51.0839L46.4639 28.24L51.2239 34H48.4039L44.3039 29V34H42.0239ZM53.7902 37.9C53.4568 37.9 53.1835 37.8867 52.9702 37.86C52.7568 37.8333 52.6502 37.82 52.6502 37.82V35.92C52.6502 35.92 52.7568 35.9267 52.9702 35.94C53.1835 35.9667 53.4168 35.98 53.6702 35.98C54.4035 35.98 55.0035 35.84 55.4702 35.56C55.9502 35.2933 56.3568 34.82 56.6902 34.14L52.6502 23.4H54.9702L57.8302 31.34L60.6902 23.4H63.0502L59.0502 33.88C58.5168 35.2533 57.8368 36.2667 57.0102 36.92C56.1835 37.5733 55.1102 37.9 53.7902 37.9ZM68.388 34.2C67.3213 34.2 66.488 33.8667 65.888 33.2C65.288 32.5333 64.988 31.6467 64.988 30.54V23.4H67.268V30.26C67.268 30.9 67.4346 31.4 67.768 31.76C68.1146 32.1067 68.5813 32.28 69.168 32.28C69.7413 32.28 70.2013 32.1333 70.548 31.84C70.8946 31.5467 71.1413 31.1733 71.288 30.72C71.448 30.2533 71.528 29.7733 71.528 29.28V23.4H73.808V34H71.528V32.48H71.408C71.3013 32.68 71.128 32.92 70.888 33.2C70.6613 33.4667 70.3413 33.7 69.928 33.9C69.528 34.1 69.0146 34.2 68.388 34.2Z" fill="#404040"/>
</svg>
