<svg width="65" height="53" viewBox="0 0 101 53" fill="none"
    xmlns="http://www.w3.org/2000/svg">
    <path d="M16.5 50L3 26.5L16.5 3H83L97.5 26.5L83 50H16.5Z" stroke="#404040" stroke-width="5"/>
    <path d="M30.44 34.2C29.4133 34.2 28.5 34.02 27.7 33.66C26.9133 33.2867 26.2933 32.78 25.84 32.14C25.3867 31.5 25.16 30.76 25.16 29.92C25.16 29.2 25.2867 28.6067 25.54 28.14C25.8067 27.66 26.1067 27.2867 26.44 27.02C26.7867 26.74 27.0867 26.54 27.34 26.42C27.6067 26.3 27.74 26.24 27.74 26.24V26.12C27.74 26.12 27.6267 26.0733 27.4 25.98C27.1733 25.8733 26.9133 25.7 26.62 25.46C26.34 25.22 26.0867 24.9 25.86 24.5C25.6467 24.1 25.54 23.6067 25.54 23.02C25.54 22.2333 25.7467 21.54 26.16 20.94C26.5733 20.34 27.1467 19.8667 27.88 19.52C28.6267 19.1733 29.48 19 30.44 19C31.4133 19 32.2667 19.1733 33 19.52C33.7467 19.8667 34.3267 20.34 34.74 20.94C35.1533 21.54 35.36 22.2267 35.36 23C35.36 23.6 35.2467 24.1 35.02 24.5C34.8067 24.9 34.5533 25.22 34.26 25.46C33.9667 25.7 33.7067 25.8733 33.48 25.98C33.2667 26.0733 33.16 26.12 33.16 26.12V26.24C33.16 26.24 33.2867 26.3 33.54 26.42C33.8067 26.54 34.1067 26.74 34.44 27.02C34.7867 27.2867 35.0867 27.66 35.34 28.14C35.6067 28.6067 35.74 29.2 35.74 29.92C35.74 30.76 35.5133 31.5 35.06 32.14C34.6067 32.78 33.98 33.2867 33.18 33.66C32.3933 34.02 31.48 34.2 30.44 34.2ZM30.44 25.34C31.3067 25.34 31.9733 25.1133 32.44 24.66C32.9067 24.1933 33.14 23.6733 33.14 23.1C33.14 22.5 32.9067 21.9733 32.44 21.52C31.9733 21.0533 31.3067 20.82 30.44 20.82C29.5867 20.82 28.9267 21.0533 28.46 21.52C27.9933 21.9733 27.76 22.5 27.76 23.1C27.76 23.6733 27.9933 24.1933 28.46 24.66C28.9267 25.1133 29.5867 25.34 30.44 25.34ZM30.44 32.34C31.12 32.34 31.6867 32.2133 32.14 31.96C32.5933 31.6933 32.9333 31.36 33.16 30.96C33.4 30.5467 33.52 30.12 33.52 29.68C33.52 29.2533 33.4067 28.8467 33.18 28.46C32.9533 28.06 32.6133 27.7333 32.16 27.48C31.7067 27.2267 31.1333 27.1 30.44 27.1C29.76 27.1 29.1933 27.2267 28.74 27.48C28.2867 27.7333 27.9467 28.06 27.72 28.46C27.4933 28.8467 27.38 29.2533 27.38 29.68C27.38 30.12 27.4933 30.5467 27.72 30.96C27.96 31.36 28.3067 31.6933 28.76 31.96C29.2133 32.2133 29.7733 32.34 30.44 32.34ZM43.02 34V18.8H45.3V27.62L49.28 23.4H52.08L47.46 28.24L52.22 34H49.4L45.3 29V34H43.02ZM54.7863 37.9C54.4529 37.9 54.1796 37.8867 53.9663 37.86C53.7529 37.8333 53.6463 37.82 53.6463 37.82V35.92C53.6463 35.92 53.7529 35.9267 53.9663 35.94C54.1796 35.9667 54.4129 35.98 54.6663 35.98C55.3996 35.98 55.9996 35.84 56.4663 35.56C56.9463 35.2933 57.3529 34.82 57.6863 34.14L53.6463 23.4H55.9663L58.8263 31.34L61.6863 23.4H64.0463L60.0463 33.88C59.5129 35.2533 58.8329 36.2667 58.0063 36.92C57.1796 37.5733 56.1063 37.9 54.7863 37.9ZM69.3841 34.2C68.3174 34.2 67.4841 33.8667 66.8841 33.2C66.2841 32.5333 65.9841 31.6467 65.9841 30.54V23.4H68.2641V30.26C68.2641 30.9 68.4307 31.4 68.7641 31.76C69.1107 32.1067 69.5774 32.28 70.1641 32.28C70.7374 32.28 71.1974 32.1333 71.5441 31.84C71.8907 31.5467 72.1374 31.1733 72.2841 30.72C72.4441 30.2533 72.5241 29.7733 72.5241 29.28V23.4H74.8041V34H72.5241V32.48H72.4041C72.2974 32.68 72.1241 32.92 71.8841 33.2C71.6574 33.4667 71.3374 33.7 70.9241 33.9C70.5241 34.1 70.0107 34.2 69.3841 34.2Z" fill="#404040"/>
</svg>
